<svg width="182" height="94" viewBox="0 0 182 94" fill="none" xmlns="http://www.w3.org/2000/svg">
<path d="M11.8307 60.8507H4.20565V39.5878H0V32.8866H16.2009V39.5878H11.8307V60.8507Z" fill="white"/>
<path d="M35.7539 60.8507H28.1288V49.6035H24.49V60.8507H16.865V32.8866H24.49V42.7755H28.1288V32.8866H35.7539V60.8507Z" fill="white"/>
<path d="M38.4111 60.8507V32.8866H52.5823V39.4611H46.0361V43.5361H51.9057V49.857H46.0361V54.1313H52.5823V60.8507H38.4111Z" fill="white"/>
<path d="M9.59988 28.5806H1.97485V0.616455H15.4512V7.19092H9.59988V11.266H15.0489V17.5869H9.59988V28.5806Z" fill="white"/>
<path d="M24.7461 28.5806H17.121V0.616455H24.7461V28.5806Z" fill="white"/>
<path d="M27.4033 28.5806V0.616455H34.6809L38.5026 10.4329C38.7098 11.0124 38.9414 11.6765 39.1974 12.4251C39.4656 13.1737 39.7582 14.0371 40.0751 15.0151L40.8614 17.4782C40.581 15.0513 40.3677 12.9745 40.2214 11.2479C40.0751 9.52126 40.002 8.07234 40.002 6.90113V0.616455H47.2796V28.5806H40.002L36.162 18.2932C35.7597 17.1945 35.394 16.1682 35.0649 15.2143C34.7479 14.2484 34.4676 13.3307 34.2238 12.4614C34.3822 14.4295 34.498 16.144 34.5712 17.605C34.6443 19.066 34.6809 20.3459 34.6809 21.4446V28.5806H27.4033Z" fill="white"/>
<path d="M49.9368 28.5806V0.616455H56.5196C60.2864 0.616455 63.2181 1.61862 65.3148 3.62296C68.0698 6.24308 69.4473 9.90764 69.4473 14.6166C69.4473 19.2532 68.2832 22.8332 65.9548 25.3567C63.9678 27.5059 61.0056 28.5806 57.0681 28.5806H49.9368ZM57.5618 21.825C60.2924 21.6922 61.6578 19.3618 61.6578 14.834C61.6578 12.6002 61.3103 10.8374 60.6155 9.54541C59.9206 8.24138 58.982 7.58937 57.7995 7.58937H57.5618V21.825Z" fill="white"/>
<path d="M68.7685 60.8509H61.1434V32.8868H68.5307C72.2122 32.8868 74.9428 33.6294 76.7226 35.1145C78.8193 36.8653 79.8677 39.2983 79.8677 42.4134C79.8677 45.8063 78.7523 48.3359 76.5215 50.0021C74.9977 51.125 72.8095 51.6865 69.957 51.6865H68.7685V60.8509ZM68.7685 45.4018L69.1159 45.4199C70.0423 45.4199 70.7799 45.1422 71.3284 44.5868C71.877 44.0193 72.1513 43.2466 72.1513 42.2685C72.1513 41.3026 71.8831 40.5178 71.3467 39.914C70.8103 39.2983 70.1277 38.9904 69.2987 38.9904H68.7685V45.4018Z" fill="white"/>
<path d="M81.2267 60.8509V32.8868H95.3979V39.4613H88.8517V43.5363H94.7213V49.8572H88.8517V54.1315H95.3979V60.8509H81.2267Z" fill="white"/>
<path d="M117.438 60.8509H109.191L105.424 50.8896C105.388 50.7206 105.321 50.4972 105.223 50.2195C105.138 49.9418 105.028 49.6097 104.894 49.2233L104.949 51.0707V60.8509H97.3603V32.8868H105.168C108.606 32.8868 111.178 33.5569 112.885 34.8972C115.054 36.6117 116.139 39.0507 116.139 42.2142C116.139 45.595 114.683 47.9314 111.769 49.2233L117.438 60.8509ZM104.985 45.8365H105.497C106.375 45.8365 107.106 45.5044 107.692 44.8404C108.277 44.1763 108.569 43.3311 108.569 42.3048C108.569 40.2159 107.466 39.1715 105.26 39.1715H104.985V45.8365Z" fill="white"/>
<path d="M126.275 60.8509H118.65V32.8868H132.127V39.4613H126.275V43.5363H131.724V49.8572H126.275V60.8509Z" fill="white"/>
<path d="M133.797 60.8509V32.8868H147.968V39.4613H141.422V43.5363H147.291V49.8572H141.422V54.1315H147.968V60.8509H133.797Z" fill="white"/>
<path d="M165.802 52.248L165.363 60.3257C163.669 61.0018 162.151 61.3399 160.81 61.3399C157.653 61.3399 154.995 60.1929 152.838 57.8987C150.424 55.3269 149.217 51.6865 149.217 46.9775C149.217 42.5704 150.351 39.0326 152.618 36.3642C154.885 33.7078 157.915 32.3797 161.706 32.3797C162.937 32.3797 164.193 32.6091 165.473 33.0679V41.0551C164.339 39.9322 163.175 39.3707 161.98 39.3707C160.42 39.3707 159.201 40.0287 158.323 41.3448C157.445 42.673 157.007 44.5083 157.007 46.8507C157.007 47.9857 157.116 49 157.336 49.8935C157.555 50.787 157.866 51.5416 158.268 52.1574C158.683 52.7732 159.189 53.2441 159.786 53.5701C160.383 53.8961 161.066 54.0591 161.834 54.0591C163.151 54.0591 164.473 53.4554 165.802 52.248Z" fill="white"/>
<path d="M177.346 60.8509H169.721V39.588H165.515V32.8868H181.716V39.588H177.346V60.8509Z" fill="white"/>
<path d="M103.618 79.2293C103.618 83.4915 102.636 86.9568 100.674 89.6253C98.7233 92.2816 96.1817 93.6098 93.0487 93.6098C90.2694 93.6098 87.8862 92.5895 85.8991 90.5489C83.4001 87.965 82.1506 84.0892 82.1506 78.9214C82.1506 73.9709 83.455 70.1856 86.0637 67.5655C88.002 65.6215 90.2998 64.6495 92.9573 64.6495C96.2121 64.6495 98.8026 65.9656 100.729 68.5978C102.655 71.23 103.618 74.7738 103.618 79.2293ZM95.7001 79.2836C95.7001 74.2245 94.7981 71.6949 92.9939 71.6949C92.0918 71.6949 91.3726 72.359 90.8362 73.6872C90.312 74.9187 90.0499 76.7299 90.0499 79.1206C90.0499 81.4751 90.2937 83.3044 90.7814 84.6084C91.2812 85.9003 91.9699 86.5463 92.8476 86.5463C93.7497 86.5463 94.4445 85.9064 94.9321 84.6265C95.4441 83.3466 95.7001 81.5657 95.7001 79.2836Z" fill="white"/>
<path d="M117.1 65.1567H124.725V84.9344C124.725 86.5886 124.463 87.9288 123.939 88.9551C123.427 90.0297 122.573 91.0017 121.379 91.8711C119.77 93.0302 117.813 93.6098 115.509 93.6098C112.9 93.6098 110.712 92.9698 108.945 91.69C106.702 90.0599 105.58 87.4519 105.58 83.8658V65.1567H113.205V83.1957C113.205 84.4152 113.351 85.2785 113.644 85.7856C113.949 86.2927 114.455 86.5463 115.162 86.5463C115.893 86.5463 116.399 86.3109 116.679 85.84C116.96 85.3449 117.1 84.4695 117.1 83.2138V65.1567Z" fill="white"/>
<path d="M137.238 93.1208H129.613V71.8579H125.407V65.1567H141.608V71.8579H137.238V93.1208Z" fill="white"/>
<path d="M149.897 93.1208H142.272V65.1567H155.749V71.7311H149.897V75.8062H155.346V82.1271H149.897V93.1208Z" fill="white"/>
<path d="M165.044 93.1208H157.419V65.1567H165.044V93.1208Z" fill="white"/>
<path d="M177.557 93.1208H169.932V71.8579H165.726V65.1567H181.927V71.8579H177.557V93.1208Z" fill="white"/>
<path fill-rule="evenodd" clip-rule="evenodd" d="M182 28.5804L70.7778 28.5804L70.7778 26.7258L182 26.7258L182 28.5804Z" fill="white"/>
<path fill-rule="evenodd" clip-rule="evenodd" d="M182 2.24486L70.7778 2.24487L70.7778 0.390259L182 0.390249L182 2.24486Z" fill="white"/>
<path fill-rule="evenodd" clip-rule="evenodd" d="M80.8889 67.8981H0V66.0435H80.8889V67.8981Z" fill="white"/>
<path fill-rule="evenodd" clip-rule="evenodd" d="M80.8889 93.1209H0V91.2663H80.8889V93.1209Z" fill="white"/>
</svg>
